<?xml version="1.0" encoding="utf-8"?>
<!-- Generator: Adobe Illustrator 16.0.0, SVG Export Plug-In . SVG Version: 6.00 Build 0)  -->
<!DOCTYPE svg PUBLIC "-//W3C//DTD SVG 1.1//EN" "http://www.w3.org/Graphics/SVG/1.1/DTD/svg11.dtd">
<svg version="1.1" id="Layer_1" xmlns="http://www.w3.org/2000/svg" xmlns:xlink="http://www.w3.org/1999/xlink" x="0px" y="0px"
	 width="500px" height="157px" viewBox="0 0 500 157" enable-background="new 0 0 500 157" xml:space="preserve">
<g>
	<polygon fill="#FFFFFF" points="1301.02,41.112 1273.29,9.156 1279.253,28.261 1259.609,32.437 	"/>
	<path fill="#7AB9E8" d="M1172.303,15.214c14.027-11.685,28.996-15.179,28.996-15.179c-17.215,0-64.082,15.163-66.886,65.083
		C1140.123,42.688,1154.65,25.798,1172.303,15.214z"/>
	<polygon fill="#5DA2D5" points="1301.02,115.887 1273.29,147.842 1279.253,128.738 1259.609,124.562 	"/>
	<path fill="#FFFFFF" d="M1276.727,25.133c0,0-21.951-22.062-56.514-22.062c-39.698,0-85.937,30.358-85.937,84.07
		c0,53.711,49.274,69.824,67.022,69.824c0,0-53.011-12.377-53.011-68.424c0-43.669,40.399-76.83,77.764-76.83
		C1256.398,11.711,1276.727,25.133,1276.727,25.133z"/>
	<path fill="#5DA2D5" d="M1150.804,86.925c-0.004,0.281-0.024,0.557-0.024,0.839c0,26.25,11.627,42.918,23.992,53.225
		c14.137,8.49,30.264,12.939,45.441,12.939c34.562,0,56.514-22.062,56.514-22.062s-20.328,13.422-50.675,13.422
		C1194.172,145.287,1160.121,121.135,1150.804,86.925z"/>
	<path fill="#FFFFFF" d="M1309.994,60.511h-17.004c-5.856,0.003-10.6,4.745-10.604,10.603v13.215
		c0.004,5.856,4.746,10.598,10.604,10.602h17.004c5.857-0.004,10.602-4.745,10.605-10.602V71.114
		C1320.596,65.256,1315.852,60.514,1309.994,60.511z M1313.594,84.329c-0.004,1.981-1.613,3.592-3.6,3.596h-17.004
		c-1.984-0.004-3.594-1.614-3.598-3.596V71.114c0.004-1.984,1.612-3.593,3.598-3.597h17.004c1.986,0.004,3.596,1.613,3.6,3.597
		V84.329z"/>
	<path fill="#FFFFFF" d="M1223.568,83.404v0.925c-0.003,1.981-1.612,3.592-3.598,3.596h-17.004
		c-1.985-0.004-3.594-1.614-3.598-3.596V71.114c0.004-1.984,1.611-3.593,3.598-3.597h17.004c1.985,0.004,3.595,1.613,3.598,3.597
		v0.924h7.006v-0.924c-0.002-5.858-4.746-10.6-10.604-10.603h-17.004c-5.857,0.003-10.602,4.745-10.604,10.603v13.215
		c0.002,5.856,4.745,10.598,10.604,10.602h17.004c5.857-0.004,10.602-4.745,10.604-10.602v-0.925H1223.568z"/>
	<rect x="1496.529" y="60.511" fill="#FFFFFF" width="7.066" height="34.42"/>
	<polygon fill="#FFFFFF" points="1634.268,60.511 1620.592,60.511 1613.525,60.511 1599.848,60.511 1599.848,66.823 
		1613.525,66.823 1613.525,94.931 1620.592,94.931 1620.592,66.823 1634.268,66.823 	"/>
	<polygon fill="#FFFFFF" points="1586.203,60.511 1586.203,75.153 1563.455,75.153 1563.455,60.511 1556.389,60.511 
		1556.389,94.931 1563.455,94.931 1563.455,81.254 1586.203,81.254 1586.203,94.931 1593.27,94.931 1593.27,60.511 	"/>
	<polygon fill="#FFFFFF" points="1465.492,88.698 1465.492,60.511 1458.426,60.511 1458.426,87.862 1458.426,94.931 
		1465.492,94.931 1487.971,94.931 1487.971,88.698 	"/>
	<polygon fill="#FFFFFF" points="1453.039,67.579 1453.039,60.511 1424.938,60.511 1417.871,60.511 1417.871,67.579 
		1417.871,94.931 1424.938,94.931 1424.938,80.368 1451.248,80.368 1451.248,74.187 1424.938,74.187 1424.938,67.579 	"/>
	<path fill="#FFFFFF" d="M1549.688,72.038v-0.924c-0.002-5.858-4.748-10.6-10.605-10.603h-17.004
		c-5.857,0.003-10.6,4.745-10.604,10.603v13.215c0.004,5.856,4.746,10.598,10.604,10.602h17.004
		c5.857-0.004,10.604-4.745,10.605-10.602v-3.075v-1.977v-4.125h-19.934v6.101h12.928v3.075c-0.004,1.981-1.613,3.592-3.6,3.596
		h-17.004c-1.984-0.004-3.594-1.614-3.598-3.596V71.114c0.004-1.984,1.613-3.593,3.598-3.597h17.004
		c1.986,0.004,3.596,1.613,3.6,3.597v0.924H1549.688z"/>
	<path fill="#FFFFFF" d="M1276.151,71.114c-0.003-5.858-4.747-10.6-10.604-10.603h-8.502h-6.123h-5.977h-7.006v7.006v27.414h7.006
		v-11.12h19.842v0.023h0.76c1.986,0.004,3.596,1.615,3.599,3.596v7.501h7.006V87.43c-0.001-2.74-1.05-5.229-2.757-7.11
		c1.707-1.88,2.756-4.368,2.757-7.109V71.114z M1264.787,76.829h-19.842v-9.312h5.977h6.123h8.502
		c1.986,0.004,3.596,1.613,3.599,3.597v2.097c-0.003,1.965-1.587,3.561-3.55,3.591v0.03c-0.018,0-0.032-0.002-0.049-0.002H1264.787z
		"/>
	<path fill="#FFFFFF" d="M1355.939,74.147h-4.951h-3.551h-8.502c-1.982-0.003-3.541-1.311-3.541-3.588
		c0-1.751,1.745-3.039,3.541-3.042h17.004c1.983,0.004,3.59,1.608,3.598,3.589h7.006c-0.006-5.854-4.749-10.592-10.604-10.595
		h-17.004c-5.67,0.003-10.281,4.451-10.575,10.048c0.008,5.853,4.722,10.59,10.575,10.594h8.502h3.551h4.951
		c1.983,0.003,3.598,1.375,3.598,3.614c0,1.76-1.762,3.153-3.598,3.157h-17.004c-1.982-0.004-3.59-1.611-3.598-3.589h-7.006
		c0.008,5.853,4.75,10.591,10.604,10.595h17.004c5.709-0.004,10.37-4.512,10.604-10.163
		C1366.537,78.913,1361.794,74.15,1355.939,74.147z"/>
	<path fill="#FFFFFF" d="M1401.244,74.147h-4.953h-3.549h-8.502c-1.982-0.003-3.541-1.311-3.541-3.588
		c0-1.751,1.746-3.039,3.541-3.042h17.004c1.984,0.004,3.59,1.608,3.598,3.589h7.006c-0.004-5.854-4.748-10.592-10.604-10.595
		h-17.004c-5.67,0.003-10.281,4.451-10.575,10.048c0.008,5.853,4.722,10.59,10.575,10.594h8.502h3.549h4.953
		c1.984,0.003,3.598,1.375,3.598,3.614c0,1.76-1.764,3.153-3.598,3.157h-17.004c-1.982-0.004-3.59-1.611-3.597-3.589h-7.007
		c0.008,5.853,4.75,10.591,10.604,10.595h17.004c5.709-0.004,10.369-4.512,10.604-10.163
		C1411.844,78.913,1407.1,74.15,1401.244,74.147z"/>
	<g>
		<path fill="#5DA2D5" d="M1341.574,115.947c-0.597,0.244-1.871,0.492-2.878,0.492c-1.583,0-2.774-0.451-3.699-1.375
			c-1.192-1.152-1.829-3.207-1.788-5.59c0.061-5.039,2.938-7.133,5.878-7.133c1.048,0,1.829,0.204,2.261,0.412l-0.473,2.32
			c-0.391-0.205-0.904-0.307-1.582-0.307c-1.83,0-3.289,1.252-3.289,4.871c0,3.328,1.295,4.521,2.549,4.521
			c0.246,0,0.432-0.021,0.534-0.062v-3.35h-1.233v-2.199h3.721V115.947z"/>
		<path fill="#5DA2D5" d="M1343.627,102.093h2.693v14.224h-2.693V102.093z"/>
		<path fill="#5DA2D5" d="M1355.877,111.263c0,4.192-2.322,5.218-3.844,5.218c-2.404,0-3.844-1.891-3.844-5.16
			c0-3.615,1.891-5.217,3.885-5.217C1354.438,106.104,1355.877,108.096,1355.877,111.263z M1350.861,111.263
			c0,1.726,0.268,3.163,1.233,3.163c0.864,0,1.09-1.686,1.09-3.163c0-1.38-0.226-3.127-1.131-3.127
			C1351.067,108.136,1350.861,109.883,1350.861,111.263z"/>
		<path fill="#5DA2D5" d="M1357.582,116.316c0.041-0.883,0.082-2.014,0.082-2.98v-11.243h2.692v5.182h0.042
			c0.492-0.719,1.129-1.171,2.096-1.171c1.952,0,2.836,2.196,2.836,4.911c0,3.513-1.397,5.466-3.268,5.466
			c-0.843,0-1.439-0.346-1.973-1.354h-0.062l-0.145,1.189H1357.582z M1360.356,112.723c0,0.244,0.042,0.492,0.103,0.635
			c0.227,0.719,0.596,0.926,0.925,0.926c0.903,0,1.274-1.131,1.274-3.064c0-1.727-0.391-2.857-1.295-2.857
			c-0.411,0-0.76,0.435-0.904,0.928c-0.061,0.164-0.103,0.43-0.103,0.616V112.723z"/>
		<path fill="#5DA2D5" d="M1371.66,116.316l-0.145-0.986h-0.041c-0.555,0.781-1.336,1.15-2.22,1.15
			c-1.521,0-2.651-1.273-2.651-3.062c0-2.63,2.322-3.721,4.604-3.738v-0.227c0-0.781-0.473-1.357-1.418-1.357
			c-0.801,0-1.459,0.204-2.055,0.576l-0.493-1.81c0.555-0.329,1.726-0.759,3.123-0.759c3.062,0,3.556,2.138,3.556,4.17v3.74
			c0,0.803,0.041,1.623,0.164,2.303H1371.66z M1371.289,111.426c-0.904,0.02-2.137,0.307-2.137,1.705
			c0,1.008,0.555,1.379,0.966,1.379c0.432,0,0.925-0.27,1.11-0.865c0.041-0.141,0.061-0.309,0.061-0.473V111.426z"/>
		<path fill="#5DA2D5" d="M1376.117,102.093h2.693v14.224h-2.693V102.093z"/>
		<path fill="#5DA2D5" d="M1390.689,110.234h-3.166v3.738h3.576v2.344h-6.267v-13.852h6.021v2.344h-3.33v3.186h3.166V110.234z"/>
		<path fill="#5DA2D5" d="M1395.088,106.268l0.617,1.787c0.203,0.596,0.369,1.193,0.492,1.687h0.041
			c0.143-0.515,0.307-1.132,0.473-1.687l0.596-1.787h2.713l-2.281,4.934l2.324,5.115h-2.939l-0.68-1.891
			c-0.184-0.514-0.35-1.029-0.492-1.539h-0.043c-0.121,0.51-0.307,1.025-0.451,1.539l-0.617,1.891h-2.691l2.24-4.996l-2.219-5.053
			H1395.088z"/>
		<path fill="#5DA2D5" d="M1401.373,109.453c0-1.212-0.043-2.24-0.082-3.186h2.342l0.145,1.148h0.041
			c0.412-0.82,1.172-1.312,2.098-1.312c2.219,0,3.123,2.383,3.123,5.178c0,3.576-1.582,5.199-3.268,5.199
			c-0.822,0-1.377-0.516-1.666-0.986h-0.039v4.77h-2.693V109.453z M1404.066,112.639c0,0.35,0.039,0.656,0.145,0.865
			c0.203,0.615,0.553,0.779,0.861,0.779c0.945,0,1.273-1.396,1.273-2.98c0-1.912-0.451-2.941-1.254-2.941
			c-0.408,0-0.801,0.391-0.904,0.865c-0.102,0.205-0.121,0.471-0.121,0.719V112.639z"/>
		<path fill="#5DA2D5" d="M1410.848,109.289c0-1.008-0.043-2.099-0.082-3.021h2.342l0.145,1.459h0.062
			c0.451-1.068,1.252-1.623,1.994-1.623c0.266,0,0.41,0,0.574,0.039v2.672c-0.164-0.041-0.35-0.041-0.574-0.041
			c-0.578,0-1.338,0.391-1.646,1.438c-0.061,0.227-0.102,0.577-0.102,1.008v5.098h-2.713V109.289z"/>
		<path fill="#5DA2D5" d="M1419.355,112.248c0.043,1.561,0.945,2.139,2.139,2.139c0.762,0,1.438-0.164,1.91-0.33l0.371,1.932
			c-0.699,0.266-1.746,0.451-2.775,0.451c-2.732,0-4.232-1.809-4.232-4.951c0-3.371,1.746-5.385,4.027-5.385
			c2.158,0,3.412,1.703,3.412,4.747c0,0.718-0.02,1.108-0.082,1.397H1419.355z M1421.76,110.357c0-1.295-0.328-2.303-1.129-2.303
			c-0.885,0-1.232,1.296-1.254,2.303H1421.76z"/>
		<path fill="#5DA2D5" d="M1425.932,113.893c0.391,0.246,1.131,0.533,1.811,0.533c0.697,0,1.088-0.307,1.088-0.904
			c0-0.516-0.287-0.844-1.172-1.357c-1.645-0.924-2.035-1.971-2.035-2.896c0-1.807,1.295-3.164,3.309-3.164
			c0.844,0,1.5,0.204,2.035,0.452l-0.473,1.97c-0.391-0.226-0.861-0.408-1.398-0.408c-0.678,0-1.006,0.408-1.006,0.861
			s0.227,0.701,1.17,1.256c1.48,0.842,2.035,1.889,2.035,3.043c0,2.053-1.479,3.162-3.553,3.162c-0.844,0-1.83-0.225-2.303-0.576
			L1425.932,113.893z"/>
		<path fill="#5DA2D5" d="M1432.877,113.893c0.391,0.246,1.131,0.533,1.809,0.533c0.701,0,1.09-0.307,1.09-0.904
			c0-0.516-0.289-0.844-1.172-1.357c-1.645-0.924-2.035-1.971-2.035-2.896c0-1.807,1.295-3.164,3.311-3.164
			c0.842,0,1.498,0.204,2.033,0.452l-0.473,1.97c-0.391-0.226-0.863-0.408-1.396-0.408c-0.68,0-1.008,0.408-1.008,0.861
			s0.227,0.701,1.172,1.256c1.479,0.842,2.033,1.889,2.033,3.043c0,2.053-1.48,3.162-3.555,3.162c-0.842,0-1.828-0.225-2.301-0.576
			L1432.877,113.893z"/>
		<path fill="#5DA2D5" d="M1450.344,116.111c-0.391,0.188-1.15,0.328-2.096,0.328c-3.535,0-5.221-2.918-5.221-6.844
			c0-5.219,2.898-7.254,5.59-7.254c0.945,0,1.605,0.186,1.871,0.368l-0.453,2.263c-0.309-0.143-0.656-0.268-1.254-0.268
			c-1.521,0-2.896,1.314-2.896,4.748c0,3.309,1.254,4.604,2.896,4.604c0.453,0,0.969-0.105,1.297-0.207L1450.344,116.111z"/>
		<path fill="#5DA2D5" d="M1459.1,111.263c0,4.192-2.322,5.218-3.844,5.218c-2.406,0-3.844-1.891-3.844-5.16
			c0-3.615,1.891-5.217,3.885-5.217C1457.66,106.104,1459.1,108.096,1459.1,111.263z M1454.084,111.263
			c0,1.726,0.268,3.163,1.232,3.163c0.863,0,1.09-1.686,1.09-3.163c0-1.38-0.227-3.127-1.129-3.127
			C1454.291,108.136,1454.084,109.883,1454.084,111.263z"/>
		<path fill="#5DA2D5" d="M1468.266,113.254c0,1.07,0.041,2.117,0.082,3.062h-2.322l-0.145-1.07h-0.039
			c-0.473,0.68-1.297,1.234-2.324,1.234c-1.912,0-2.693-1.416-2.693-4.131v-6.082h2.715v5.795c0,1.316,0.244,2.16,1.006,2.16
			c0.453,0,0.74-0.352,0.863-0.68c0.104-0.207,0.166-0.514,0.166-0.865v-6.41h2.691V113.254z"/>
		<path fill="#5DA2D5" d="M1470.463,109.289c0-1.008-0.041-2.099-0.08-3.021h2.342l0.145,1.459h0.061
			c0.453-1.068,1.254-1.623,1.994-1.623c0.268,0,0.412,0,0.576,0.039v2.672c-0.164-0.041-0.35-0.041-0.576-0.041
			c-0.576,0-1.338,0.391-1.645,1.438c-0.061,0.227-0.104,0.577-0.104,1.008v5.098h-2.713V109.289z"/>
		<path fill="#5DA2D5" d="M1479.506,103.596c0.02,0.861-0.598,1.457-1.418,1.457c-0.74,0-1.357-0.596-1.338-1.457
			c-0.02-0.904,0.639-1.459,1.377-1.459C1478.908,102.137,1479.506,102.691,1479.506,103.596z M1476.812,116.316v-10.049h2.693
			v10.049H1476.812z"/>
		<path fill="#5DA2D5" d="M1483.924,112.248c0.043,1.561,0.945,2.139,2.139,2.139c0.76,0,1.438-0.164,1.912-0.33l0.369,1.932
			c-0.699,0.266-1.746,0.451-2.775,0.451c-2.732,0-4.232-1.809-4.232-4.951c0-3.371,1.746-5.385,4.027-5.385
			c2.158,0,3.412,1.703,3.412,4.747c0,0.718-0.02,1.108-0.082,1.397H1483.924z M1486.328,110.357c0-1.295-0.328-2.303-1.129-2.303
			c-0.885,0-1.232,1.296-1.256,2.303H1486.328z"/>
		<path fill="#5DA2D5" d="M1490.562,109.289c0-1.008-0.041-2.099-0.08-3.021h2.342l0.145,1.459h0.061
			c0.453-1.068,1.254-1.623,1.994-1.623c0.268,0,0.41,0,0.576,0.039v2.672c-0.166-0.041-0.35-0.041-0.576-0.041
			c-0.576,0-1.338,0.391-1.645,1.438c-0.061,0.227-0.102,0.577-0.102,1.008v5.098h-2.715V109.289z"/>
		<path fill="#5DA2D5" d="M1495.268,118.885c0.596-1.703,1.152-3.842,1.377-5.467l2.734-0.203c-0.617,1.85-1.48,4.006-2.385,5.488
			L1495.268,118.885z"/>
		<path fill="#5DA2D5" d="M1513.354,111.467c-0.061-1.316-0.164-3.105-0.123-4.582h-0.062c-0.246,1.477-0.617,3.185-0.883,4.254
			l-1.191,4.951h-1.912l-1.15-4.871c-0.268-1.109-0.637-2.835-0.844-4.334h-0.062c-0.039,1.499-0.121,3.247-0.203,4.623
			l-0.227,4.809h-2.322l1.006-13.852h2.836l1.111,5.014c0.391,1.748,0.738,3.288,0.986,4.85h0.041
			c0.205-1.54,0.514-3.102,0.883-4.85l1.09-5.014h2.836l0.842,13.852h-2.402L1513.354,111.467z"/>
		<path fill="#5DA2D5" d="M1522.598,116.316l-0.143-0.986h-0.041c-0.555,0.781-1.336,1.15-2.221,1.15c-1.52,0-2.65-1.273-2.65-3.062
			c0-2.63,2.322-3.721,4.604-3.738v-0.227c0-0.781-0.473-1.357-1.418-1.357c-0.801,0-1.459,0.204-2.055,0.576l-0.494-1.81
			c0.555-0.329,1.729-0.759,3.125-0.759c3.061,0,3.557,2.138,3.557,4.17v3.74c0,0.803,0.039,1.623,0.164,2.303H1522.598z
			 M1522.23,111.426c-0.906,0.02-2.139,0.307-2.139,1.705c0,1.008,0.555,1.379,0.965,1.379c0.432,0,0.926-0.27,1.111-0.865
			c0.039-0.141,0.062-0.309,0.062-0.473V111.426z"/>
		<path fill="#5DA2D5" d="M1529.75,103.596c0.02,0.861-0.596,1.457-1.418,1.457c-0.74,0-1.357-0.596-1.336-1.457
			c-0.021-0.904,0.637-1.459,1.377-1.459C1529.154,102.137,1529.75,102.691,1529.75,103.596z M1527.057,116.316v-10.049h2.693
			v10.049H1527.057z"/>
		<path fill="#5DA2D5" d="M1531.93,102.093h2.691v14.224h-2.691V102.093z"/>
		<path fill="#5DA2D5" d="M1544.895,116.316l-0.143-0.986h-0.041c-0.555,0.781-1.336,1.15-2.221,1.15
			c-1.52,0-2.652-1.273-2.652-3.062c0-2.63,2.324-3.721,4.605-3.738v-0.227c0-0.781-0.473-1.357-1.418-1.357
			c-0.801,0-1.461,0.204-2.055,0.576l-0.496-1.81c0.557-0.329,1.729-0.759,3.127-0.759c3.061,0,3.555,2.138,3.555,4.17v3.74
			c0,0.803,0.041,1.623,0.164,2.303H1544.895z M1544.525,111.426c-0.904,0.02-2.137,0.307-2.137,1.705
			c0,1.008,0.553,1.379,0.965,1.379c0.432,0,0.926-0.27,1.111-0.865c0.039-0.141,0.061-0.309,0.061-0.473V111.426z"/>
		<path fill="#5DA2D5" d="M1549.354,109.289c0-1.109-0.062-2.076-0.082-3.021h2.322l0.123,1.148h0.041
			c0.535-0.799,1.398-1.312,2.447-1.312c1.912,0,2.67,1.521,2.67,3.762v6.451h-2.691v-6.287c0-0.865-0.205-1.668-0.986-1.668
			c-0.451,0-0.822,0.311-1.006,0.906c-0.082,0.207-0.145,0.535-0.145,0.926v6.123h-2.693V109.289z"/>
		<path fill="#5DA2D5" d="M1566.352,102.093v11.243c0,0.967,0.041,2.057,0.082,2.98h-2.322l-0.145-1.131h-0.041
			c-0.371,0.699-1.172,1.295-2.098,1.295c-2.137,0-3.123-2.361-3.123-5.178c0-3.496,1.52-5.199,3.227-5.199
			c0.885,0,1.439,0.43,1.686,1.007h0.041v-5.018H1566.352z M1563.658,110.132c0-0.187,0-0.391-0.021-0.599
			c-0.102-0.617-0.43-1.172-0.965-1.172c-0.945,0-1.295,1.38-1.295,3.004c0,1.912,0.514,2.918,1.275,2.918
			c0.328,0,0.719-0.186,0.924-0.887c0.061-0.143,0.082-0.367,0.082-0.615V110.132z"/>
		<path fill="#5DA2D5" d="M1572.328,102.465h2.693v11.57h3.555v2.281h-6.248V102.465z"/>
		<path fill="#5DA2D5" d="M1587.414,111.263c0,4.192-2.322,5.218-3.844,5.218c-2.404,0-3.842-1.891-3.842-5.16
			c0-3.615,1.891-5.217,3.885-5.217C1585.975,106.104,1587.414,108.096,1587.414,111.263z M1582.398,111.263
			c0,1.726,0.27,3.163,1.234,3.163c0.863,0,1.09-1.686,1.09-3.163c0-1.38-0.227-3.127-1.131-3.127
			C1582.605,108.136,1582.398,109.883,1582.398,111.263z"/>
		<path fill="#5DA2D5" d="M1596.641,106.268c-0.041,0.904-0.102,1.974-0.102,3.186v5.732c0,2.16-0.391,3.354-1.213,4.133
			c-0.74,0.697-1.789,1.109-3.268,1.109c-0.926,0-1.789-0.164-2.51-0.475l0.494-2.076c0.514,0.227,1.152,0.436,1.932,0.436
			c1.357,0,1.891-0.904,1.891-2.449v-0.617h-0.039c-0.35,0.639-1.051,1.008-1.811,1.008c-2.26,0-3.145-2.467-3.145-4.871
			c0-3.35,1.521-5.279,3.393-5.279c0.801,0,1.457,0.408,1.848,1.171h0.043l0.145-1.007H1596.641z M1593.865,109.924
			c0-0.267-0.039-0.533-0.102-0.737c-0.123-0.435-0.41-0.825-0.863-0.825c-0.967,0-1.357,1.318-1.357,2.959
			c0,1.873,0.535,2.818,1.297,2.818c0.348,0,0.697-0.188,0.904-0.721c0.082-0.225,0.121-0.531,0.121-0.801V109.924z"/>
		<path fill="#5DA2D5" d="M1601.389,103.596c0.02,0.861-0.598,1.457-1.418,1.457c-0.74,0-1.357-0.596-1.338-1.457
			c-0.02-0.904,0.639-1.459,1.379-1.459C1600.791,102.137,1601.389,102.691,1601.389,103.596z M1598.695,116.316v-10.049h2.693
			v10.049H1598.695z"/>
		<path fill="#5DA2D5" d="M1603.484,113.893c0.391,0.246,1.131,0.533,1.811,0.533c0.697,0,1.088-0.307,1.088-0.904
			c0-0.516-0.287-0.844-1.172-1.357c-1.645-0.924-2.035-1.971-2.035-2.896c0-1.807,1.295-3.164,3.309-3.164
			c0.844,0,1.5,0.204,2.035,0.452l-0.473,1.97c-0.391-0.226-0.863-0.408-1.398-0.408c-0.678,0-1.006,0.408-1.006,0.861
			s0.227,0.701,1.17,1.256c1.48,0.842,2.035,1.889,2.035,3.043c0,2.053-1.479,3.162-3.553,3.162c-0.844,0-1.83-0.225-2.303-0.576
			L1603.484,113.893z"/>
		<path fill="#5DA2D5" d="M1613.676,103.553v2.715h1.975v1.912h-1.975v4.582c0,1.172,0.494,1.461,1.027,1.461
			c0.268,0,0.475-0.023,0.697-0.062l0.023,2.094c-0.371,0.105-0.926,0.186-1.646,0.186c-0.781,0-1.457-0.186-1.932-0.639
			c-0.555-0.531-0.863-1.291-0.863-2.875v-4.746h-1.191v-1.912h1.191v-2.076L1613.676,103.553z"/>
		<path fill="#5DA2D5" d="M1619.883,103.596c0.02,0.861-0.598,1.457-1.418,1.457c-0.74,0-1.357-0.596-1.338-1.457
			c-0.02-0.904,0.639-1.459,1.377-1.459C1619.285,102.137,1619.883,102.691,1619.883,103.596z M1617.189,116.316v-10.049h2.693
			v10.049H1617.189z"/>
		<path fill="#5DA2D5" d="M1627.631,116.152c-0.268,0.123-0.945,0.287-1.707,0.287c-2.549,0-4.211-1.766-4.211-5.057
			c0-3.102,1.826-5.262,4.602-5.262c0.637,0,1.213,0.146,1.48,0.271l-0.35,2.116c-0.225-0.084-0.555-0.186-1.006-0.186
			c-1.295,0-2.057,1.232-2.057,2.98c0,1.828,0.762,2.938,2.014,2.938c0.391,0,0.721-0.062,1.008-0.205L1627.631,116.152z"/>
		<path fill="#5DA2D5" d="M1628.904,113.893c0.389,0.246,1.131,0.533,1.809,0.533c0.699,0,1.09-0.307,1.09-0.904
			c0-0.516-0.289-0.844-1.172-1.357c-1.645-0.924-2.035-1.971-2.035-2.896c0-1.807,1.295-3.164,3.309-3.164
			c0.844,0,1.5,0.204,2.035,0.452l-0.473,1.97c-0.391-0.226-0.863-0.408-1.398-0.408c-0.678,0-1.006,0.408-1.006,0.861
			s0.227,0.701,1.17,1.256c1.48,0.842,2.035,1.889,2.035,3.043c0,2.053-1.48,3.162-3.555,3.162c-0.842,0-1.83-0.225-2.301-0.576
			L1628.904,113.893z"/>
	</g>
</g>
<g>
	<g>
		<polygon fill="#FFFFFF" points="151.618,266.119 131.436,242.861 135.776,256.767 121.479,259.805 		"/>
		<polygon fill="#5DA2D5" points="151.618,320.542 131.436,343.801 135.776,329.896 121.479,326.857 		"/>
		<path fill="#FFFFFF" d="M133.938,254.49c0,0-15.978-16.058-41.132-16.058c-28.894,0-62.546,22.097-62.546,61.188
			c0,39.09,35.862,50.818,48.78,50.818c0,0-38.582-9.008-38.582-49.8c0-31.783,29.403-55.919,56.597-55.919
			C119.142,244.721,133.938,254.49,133.938,254.49z"/>
		<path fill="#7AB9E8" d="M61.473,244.568c9.037-6.35,17.566-8.345,17.566-8.345c-12.022,0-43.899,10.176-48.261,43.101
			C36.092,263.234,47.825,251.452,61.473,244.568z"/>
		<path fill="#5DA2D5" d="M43.144,302.258c0.825,20.179,11.291,32.184,21.116,39.03c9.128,4.561,19.089,6.941,28.546,6.941
			c25.154,0,41.132-16.058,41.132-16.058s-14.795,9.77-36.883,9.77C74.731,341.941,50.954,325.665,43.144,302.258z"/>
	</g>
	<g>
		<path fill="#FFFFFF" d="M185.012,274.193h-18.09c-6.23,0.003-11.277,5.048-11.28,11.279v14.061
			c0.003,6.23,5.049,11.274,11.28,11.278h18.09c6.231-0.004,11.279-5.048,11.283-11.278v-14.061
			C196.291,279.241,191.244,274.196,185.012,274.193z M188.842,299.533c-0.004,2.107-1.716,3.821-3.83,3.825h-18.09
			c-2.111-0.004-3.823-1.718-3.828-3.825v-14.061c0.004-2.11,1.715-3.822,3.828-3.826h18.09c2.113,0.004,3.825,1.716,3.83,3.826
			V299.533z"/>
		<path fill="#FFFFFF" d="M93.067,298.549v0.984c-0.004,2.107-1.716,3.821-3.829,3.825H71.149c-2.112-0.004-3.824-1.718-3.828-3.825
			v-14.061c0.004-2.11,1.714-3.822,3.828-3.826h18.089c2.113,0.004,3.825,1.716,3.829,3.826v0.983h7.453v-0.983
			c-0.003-6.231-5.05-11.276-11.282-11.279H71.149c-6.231,0.003-11.278,5.048-11.281,11.279v14.061
			c0.003,6.23,5.048,11.274,11.281,11.278h18.089c6.231-0.004,11.279-5.048,11.282-11.278v-0.984H93.067z"/>
		<rect x="383.461" y="274.193" fill="#FFFFFF" width="7.518" height="36.618"/>
		<polygon fill="#FFFFFF" points="529.996,274.193 515.447,274.193 507.93,274.193 493.378,274.193 493.378,280.909 507.93,280.909 
			507.93,310.812 515.447,310.812 515.447,280.909 529.996,280.909 		"/>
		<polygon fill="#FFFFFF" points="478.862,274.193 478.862,289.77 454.661,289.77 454.661,274.193 447.144,274.193 447.144,310.812 
			454.661,310.812 454.661,296.262 478.862,296.262 478.862,310.812 486.38,310.812 486.38,274.193 		"/>
		<polygon fill="#FFFFFF" points="350.441,304.181 350.441,274.193 342.924,274.193 342.924,303.292 342.924,310.812 
			350.441,310.812 374.355,310.812 374.355,304.181 		"/>
		<polygon fill="#FFFFFF" points="337.193,281.713 337.193,274.193 307.297,274.193 299.779,274.193 299.779,281.713 
			299.779,310.812 307.297,310.812 307.297,295.319 335.288,295.319 335.288,288.742 307.297,288.742 307.297,281.713 		"/>
		<path fill="#FFFFFF" d="M440.015,286.456v-0.983c-0.003-6.231-5.052-11.276-11.283-11.279h-18.09
			c-6.231,0.003-11.276,5.048-11.28,11.279v14.061c0.004,6.23,5.049,11.274,11.28,11.278h18.09
			c6.231-0.004,11.28-5.048,11.283-11.278v-3.271v-2.104v-4.389h-21.207v6.492h13.753v3.271c-0.004,2.107-1.716,3.821-3.829,3.825
			h-18.09c-2.111-0.004-3.823-1.718-3.827-3.825v-14.061c0.004-2.11,1.716-3.822,3.827-3.826h18.09
			c2.113,0.004,3.825,1.716,3.829,3.826v0.983H440.015z"/>
		<path fill="#FFFFFF" d="M149.008,285.473c-0.003-6.231-5.05-11.276-11.282-11.279h-9.045h-6.513h-6.359h-7.453v7.453v29.165h7.453
			v-11.83h21.109v0.024h0.808c2.112,0.005,3.825,1.719,3.828,3.825v7.98h7.454v-7.98c-0.001-2.915-1.117-5.562-2.933-7.564
			c1.816-2,2.932-4.646,2.933-7.562V285.473z M136.918,291.553h-21.109v-9.906h6.359h6.513h9.045
			c2.112,0.004,3.825,1.716,3.828,3.826v2.232c-0.003,2.09-1.688,3.787-3.777,3.818v0.032c-0.018,0-0.034-0.003-0.051-0.003H136.918
			z"/>
		<path fill="#FFFFFF" d="M233.892,288.701h-5.268h-3.777h-9.045c-2.109-0.003-3.767-1.396-3.767-3.818
			c0-1.861,1.857-3.232,3.767-3.236h18.09c2.11,0.004,3.819,1.711,3.827,3.818h7.453c-0.006-6.228-5.052-11.269-11.28-11.271h-18.09
			c-6.032,0.003-10.938,4.734-11.25,10.689c0.008,6.228,5.023,11.268,11.25,11.271h9.045h3.777h5.268
			c2.11,0.003,3.827,1.463,3.827,3.845c0,1.872-1.874,3.355-3.827,3.359h-18.09c-2.109-0.004-3.819-1.715-3.827-3.818h-7.453
			c0.008,6.227,5.053,11.268,11.28,11.271h18.09c6.073-0.004,11.032-4.8,11.28-10.812
			C245.167,293.771,240.12,288.704,233.892,288.701z"/>
		<path fill="#FFFFFF" d="M282.091,288.701h-5.27h-3.775H264c-2.109-0.003-3.767-1.396-3.767-3.818c0-1.861,1.857-3.232,3.767-3.236
			h18.091c2.11,0.004,3.818,1.711,3.827,3.818h7.453c-0.004-6.228-5.051-11.269-11.28-11.271H264
			c-6.032,0.003-10.938,4.734-11.25,10.689c0.008,6.228,5.022,11.268,11.25,11.271h9.046h3.775h5.27
			c2.11,0.003,3.827,1.463,3.827,3.845c0,1.872-1.876,3.355-3.827,3.359H264c-2.109-0.004-3.819-1.715-3.826-3.818h-7.454
			c0.008,6.227,5.053,11.268,11.28,11.271h18.091c6.073-0.004,11.031-4.8,11.28-10.812
			C293.367,293.771,288.32,288.704,282.091,288.701z"/>
	</g>
</g>
<g>
	<path fill="#FFFFFF" d="M123.277-150.998l2.255-10.542c0.183-0.955,0.274-1.641,0.274-2.057c0-0.711-0.158-1.264-0.473-1.66
		c-0.315-0.396-0.853-0.595-1.615-0.595c-0.853,0-1.683,0.305-2.491,0.915c-0.807,0.608-1.518,1.48-2.133,2.612
		c-0.614,1.132-1.089,2.496-1.424,4.09l-1.538,7.236h-2.56l3.565-16.697h2.118l-0.335,3.093h0.152
		c0.883-1.208,1.765-2.077,2.643-2.605c0.879-0.528,1.785-0.792,2.719-0.792c1.148,0,2.031,0.33,2.65,0.99
		c0.62,0.66,0.986,1.579,1.098,2.757h0.121c0.875-1.27,1.803-2.211,2.789-2.825c0.985-0.615,1.98-0.922,2.985-0.922
		c1.29,0,2.288,0.345,2.994,1.036c0.706,0.69,1.059,1.696,1.059,3.016c0,0.692-0.112,1.595-0.335,2.712l-2.194,10.237h-2.589
		l2.253-10.542c0.204-1.056,0.305-1.798,0.305-2.225c0-0.629-0.175-1.135-0.525-1.515c-0.351-0.381-0.901-0.572-1.652-0.572
		c-0.823,0-1.635,0.295-2.438,0.884c-0.803,0.589-1.505,1.425-2.11,2.506c-0.604,1.081-1.064,2.363-1.379,3.846l-1.63,7.617H123.277
		z"/>
	<path fill="#FFFFFF" d="M141.375-167.695h2.559l1.128,8.303c0.101,0.7,0.2,1.734,0.296,3.099c0.097,1.367,0.144,2.466,0.144,3.299
		h0.092c0.356-0.884,0.798-1.899,1.326-3.046c0.528-1.147,0.919-1.94,1.173-2.377l4.951-9.278h2.711l-10.602,19.53
		c-0.945,1.747-1.879,2.96-2.804,3.641c-0.923,0.681-2.036,1.02-3.336,1.02c-0.73,0-1.441-0.107-2.133-0.319v-2.057
		c0.641,0.183,1.306,0.274,1.996,0.274c0.833,0,1.546-0.256,2.141-0.769c0.593-0.515,1.17-1.272,1.729-2.279l1.157-2.071
		L141.375-167.695z"/>
	<path fill="#FFFFFF" d="M168.08-169.689c-1.34,0-2.546,0.41-3.618,1.234c-1.071,0.822-1.932,2.033-2.582,3.632
		c-0.65,1.6-0.974,3.318-0.974,5.157c0,1.695,0.346,2.955,1.042,3.778c0.696,0.822,1.806,1.233,3.329,1.233
		c1.483,0,3.199-0.391,5.149-1.172v3.96c-2.021,0.781-4.052,1.174-6.094,1.174c-2.579,0-4.584-0.76-6.016-2.279
		c-1.432-1.518-2.148-3.668-2.148-6.45c0-2.661,0.528-5.111,1.584-7.352c1.056-2.238,2.469-3.94,4.236-5.103
		c1.767-1.163,3.797-1.744,6.093-1.744c1.27,0,2.397,0.114,3.382,0.342c0.985,0.229,2.042,0.647,3.169,1.257l-1.797,3.809
		c-1.077-0.6-1.965-0.995-2.667-1.189C169.467-169.594,168.771-169.689,168.08-169.689z"/>
	<path fill="#FFFFFF" d="M186.208-168.349c0.599,0,1.087,0.056,1.462,0.168l-1.005,4.417c-0.458-0.162-0.966-0.244-1.524-0.244
		c-1.178,0-2.211,0.466-3.099,1.395c-0.889,0.929-1.522,2.262-1.897,3.999l-1.615,7.617h-4.585l3.611-17.031h3.503l-0.32,3.153
		h0.091C182.323-167.192,184.115-168.349,186.208-168.349z"/>
	<path fill="#FFFFFF" d="M203.392-161.601c0,2.143-0.357,4.042-1.074,5.698c-0.716,1.655-1.749,2.937-3.101,3.846
		c-1.35,0.909-2.955,1.364-4.813,1.364c-1.98,0-3.562-0.598-4.746-1.791c-1.182-1.193-1.774-2.78-1.774-4.761
		c0-2.162,0.363-4.09,1.089-5.781s1.774-3.001,3.145-3.929c1.372-0.93,2.976-1.395,4.815-1.395c1.99,0,3.564,0.599,4.722,1.798
		C202.812-165.354,203.392-163.703,203.392-161.601z M198.776-161.601c0-2.001-0.727-3.001-2.179-3.001
		c-0.763,0-1.446,0.309-2.05,0.929c-0.603,0.62-1.097,1.529-1.478,2.728c-0.38,1.198-0.571,2.431-0.571,3.701
		c0,1.879,0.762,2.819,2.286,2.819c0.761,0,1.447-0.313,2.057-0.937c0.608-0.625,1.084-1.493,1.423-2.605
		C198.606-159.08,198.776-160.291,198.776-161.601z"/>
	<path fill="#FFFFFF" d="M217.392-156.62c0,1.91-0.632,3.375-1.897,4.395c-1.264,1.02-3.023,1.532-5.278,1.532
		c-1.087,0-2.033-0.076-2.841-0.229c-0.807-0.152-1.562-0.406-2.262-0.762v-3.778c1.594,0.915,3.214,1.372,4.859,1.372
		c0.812,0,1.478-0.167,1.996-0.497c0.518-0.33,0.776-0.779,0.776-1.347c0-0.437-0.187-0.829-0.562-1.174
		c-0.376-0.345-1.041-0.782-1.996-1.31c-1.229-0.69-2.087-1.379-2.575-2.064c-0.486-0.686-0.73-1.495-0.73-2.43
		c0-1.727,0.562-3.064,1.683-4.014c1.123-0.951,2.725-1.425,4.807-1.425c2.042,0,3.885,0.482,5.53,1.447l-1.508,3.275
		c-1.422-0.853-2.732-1.279-3.931-1.279c-0.58,0-1.046,0.129-1.401,0.388c-0.356,0.259-0.534,0.607-0.534,1.043
		c0,0.396,0.162,0.744,0.488,1.044c0.324,0.299,0.934,0.678,1.828,1.135c1.249,0.639,2.152,1.335,2.711,2.086
		C217.111-158.457,217.392-157.594,217.392-156.62z"/>
	<path fill="#FFFFFF" d="M232.152-156.62c0,1.91-0.632,3.375-1.896,4.395c-1.266,1.02-3.024,1.532-5.279,1.532
		c-1.087,0-2.033-0.076-2.841-0.229c-0.807-0.152-1.561-0.406-2.262-0.762v-3.778c1.595,0.915,3.214,1.372,4.859,1.372
		c0.813,0,1.479-0.167,1.996-0.497c0.518-0.33,0.777-0.779,0.777-1.347c0-0.437-0.188-0.829-0.564-1.174
		c-0.376-0.345-1.041-0.782-1.996-1.31c-1.228-0.69-2.086-1.379-2.574-2.064c-0.488-0.686-0.732-1.495-0.732-2.43
		c0-1.727,0.562-3.064,1.684-4.014c1.122-0.951,2.724-1.425,4.805-1.425c2.042,0,3.885,0.482,5.53,1.447l-1.508,3.275
		c-1.422-0.853-2.732-1.279-3.931-1.279c-0.578,0-1.045,0.129-1.401,0.388c-0.355,0.259-0.532,0.607-0.532,1.043
		c0,0.396,0.162,0.744,0.486,1.044c0.326,0.299,0.934,0.678,1.828,1.135c1.249,0.639,2.154,1.335,2.712,2.086
		C231.874-158.457,232.152-157.594,232.152-156.62z"/>
	<path fill="#FFFFFF" d="M233.599-143.504c-1.056,0-1.939-0.126-2.65-0.38v-3.687c0.62,0.213,1.203,0.32,1.752,0.32
		c0.619,0,1.163-0.204,1.63-0.61c0.467-0.406,0.797-1.066,0.989-1.981l3.107-14.7h-2.482l0.457-2.209l2.788-1.279l0.274-1.281
		c0.416-1.929,1.12-3.339,2.109-4.227c0.991-0.889,2.379-1.332,4.166-1.332c1.331,0,2.524,0.248,3.58,0.746l-1.218,3.412
		c-0.701-0.314-1.376-0.473-2.026-0.473c-0.579,0-1.046,0.204-1.401,0.61c-0.356,0.406-0.594,0.94-0.716,1.6l-0.183,0.945h3.336
		l-0.746,3.488h-3.351l-3.275,15.386C238.956-145.388,236.91-143.504,233.599-143.504z M250.752-150.998h-4.585l5.027-23.705h4.585
		L250.752-150.998z"/>
	<path fill="#FFFFFF" d="M260.03-150.998h-4.585l3.61-17.031h4.585L260.03-150.998z M259.786-172.021
		c0-0.884,0.241-1.551,0.724-2.003c0.482-0.452,1.165-0.679,2.048-0.679c0.742,0,1.306,0.158,1.691,0.473
		c0.387,0.315,0.579,0.767,0.579,1.355c0,0.814-0.223,1.471-0.669,1.974c-0.448,0.503-1.139,0.754-2.072,0.754
		C260.553-170.146,259.786-170.772,259.786-172.021z"/>
	<path fill="#FFFFFF" d="M282.21-167.999l-0.534,2.528l-2.649,0.625c0.162,0.528,0.244,1.127,0.244,1.797
		c0,1.981-0.616,3.547-1.844,4.7c-1.229,1.151-2.899,1.728-5.012,1.728c-0.601,0-1.102-0.051-1.508-0.152
		c-0.854,0.274-1.281,0.671-1.281,1.188c0,0.346,0.153,0.594,0.458,0.747c0.305,0.152,0.757,0.269,1.355,0.351l2.087,0.274
		c1.655,0.212,2.862,0.642,3.619,1.286c0.755,0.646,1.134,1.577,1.134,2.795c0,2.143-0.792,3.784-2.376,4.92
		c-1.584,1.138-3.849,1.706-6.794,1.706c-2.112,0-3.76-0.382-4.943-1.149c-1.184-0.768-1.774-1.821-1.774-3.162
		c0-1.037,0.348-1.926,1.042-2.673c0.696-0.747,1.785-1.364,3.269-1.851c-0.751-0.478-1.127-1.153-1.127-2.026
		c0-0.722,0.226-1.343,0.678-1.867c0.452-0.522,1.196-1.023,2.231-1.5c-0.66-0.498-1.147-1.067-1.462-1.706
		c-0.314-0.641-0.473-1.418-0.473-2.332c0-2.021,0.638-3.623,1.912-4.807c1.274-1.182,3.008-1.774,5.202-1.774
		c0.843,0,1.686,0.117,2.529,0.351H282.21z M269.703-150.906c-1.076,0.141-1.891,0.431-2.445,0.867
		c-0.553,0.437-0.83,0.991-0.83,1.661c0,1.168,0.985,1.752,2.956,1.752c1.533,0,2.69-0.229,3.472-0.685
		c0.783-0.458,1.174-1.102,1.174-1.935c0-0.396-0.164-0.701-0.494-0.915c-0.331-0.213-1.028-0.391-2.096-0.532L269.703-150.906z
		 M273.496-165.44c-0.781,0-1.414,0.388-1.896,1.166c-0.481,0.776-0.723,1.749-0.723,2.917c0,1.208,0.522,1.813,1.568,1.813
		c0.761,0,1.378-0.39,1.851-1.166c0.473-0.778,0.708-1.76,0.708-2.948C275.004-164.845,274.502-165.44,273.496-165.44z"/>
	<path fill="#FFFFFF" d="M295.904-150.998h-4.584l2.087-9.947c0.162-0.691,0.242-1.296,0.242-1.812c0-1.25-0.547-1.874-1.645-1.874
		c-0.935,0-1.782,0.578-2.544,1.737c-0.762,1.157-1.36,2.772-1.797,4.844l-1.493,7.053h-4.586l5.026-23.705h4.587
		c-0.396,1.839-0.702,3.25-0.915,4.236c-0.214,0.985-0.65,2.554-1.31,4.707h0.122c0.629-0.782,1.33-1.408,2.103-1.88
		c0.771-0.473,1.666-0.708,2.68-0.708c1.401,0,2.487,0.424,3.253,1.272c0.767,0.847,1.15,2.058,1.15,3.633
		c0,0.741-0.117,1.655-0.351,2.741L295.904-150.998z"/>
	<path fill="#FFFFFF" d="M307.695-154.395c0.661,0,1.483-0.179,2.469-0.534v3.428c-1.129,0.538-2.479,0.808-4.053,0.808
		c-1.523,0-2.644-0.32-3.358-0.96c-0.717-0.641-1.074-1.63-1.074-2.97c0-0.509,0.061-1.077,0.183-1.706l1.752-8.211h-2.315
		l0.441-2.24l2.985-1.279l2.012-3.595h2.955l-0.746,3.626h4.311l-0.763,3.488h-4.295l-1.752,8.211
		c-0.061,0.305-0.091,0.574-0.091,0.807C306.355-154.771,306.802-154.395,307.695-154.395z"/>
</g>
<g>
	<g>
		<polygon fill="#FFFFFF" points="113.335,-318.85 93.153,-342.108 97.493,-328.203 83.196,-325.165 		"/>
		<polygon fill="#5DA2D5" points="113.335,-264.427 93.153,-241.169 97.493,-255.073 83.196,-258.112 		"/>
		<path fill="#FFFFFF" d="M95.655-330.479c0,0-15.978-16.058-41.132-16.058c-28.894,0-62.546,22.097-62.546,61.188
			c0,39.09,35.862,50.818,48.78,50.818c0,0-38.582-9.008-38.582-49.799c0-31.784,29.403-55.919,56.597-55.919
			C80.859-340.249,95.655-330.479,95.655-330.479z"/>
		<path fill="#7AB9E8" d="M23.19-340.401c9.037-6.35,17.566-8.345,17.566-8.345c-12.022,0-43.899,10.176-48.261,43.101
			C-2.191-321.735,9.542-333.517,23.19-340.401z"/>
		<path fill="#5DA2D5" d="M4.861-282.712c0.825,20.18,11.291,32.184,21.116,39.031c9.128,4.561,19.089,6.941,28.546,6.941
			c25.154,0,41.132-16.059,41.132-16.059s-14.795,9.77-36.883,9.77C36.449-243.028,12.671-259.304,4.861-282.712z"/>
	</g>
	<g>
		<path fill="#FFFFFF" d="M146.73-310.776h-18.09c-6.23,0.003-11.277,5.048-11.281,11.279v14.06
			c0.004,6.23,5.049,11.275,11.281,11.279h18.09c6.23-0.004,11.278-5.049,11.282-11.279v-14.06
			C158.008-305.728,152.96-310.773,146.73-310.776z M150.559-285.437c-0.005,2.107-1.716,3.822-3.829,3.826h-18.09
			c-2.111-0.004-3.824-1.719-3.828-3.826v-14.06c0.004-2.11,1.715-3.822,3.828-3.826h18.09c2.113,0.004,3.824,1.716,3.829,3.826
			V-285.437z"/>
		<path fill="#FFFFFF" d="M54.785-286.421v0.984c-0.004,2.107-1.716,3.822-3.829,3.826H32.867c-2.112-0.004-3.824-1.719-3.828-3.826
			v-14.06c0.004-2.11,1.714-3.822,3.828-3.826h18.089c2.113,0.004,3.825,1.716,3.829,3.826v0.983h7.453v-0.983
			c-0.003-6.231-5.05-11.276-11.282-11.279H32.867c-6.231,0.003-11.278,5.048-11.281,11.279v14.06
			c0.003,6.23,5.048,11.275,11.281,11.279h18.089c6.231-0.004,11.279-5.049,11.282-11.279v-0.984H54.785z"/>
		<rect x="345.178" y="-310.776" fill="#FFFFFF" width="7.518" height="36.619"/>
		<polygon fill="#FFFFFF" points="491.713,-310.776 477.164,-310.776 469.646,-310.776 455.096,-310.776 455.096,-304.06 
			469.646,-304.06 469.646,-274.157 477.164,-274.157 477.164,-304.06 491.713,-304.06 		"/>
		<polygon fill="#FFFFFF" points="440.58,-310.776 440.58,-295.2 416.379,-295.2 416.379,-310.776 408.861,-310.776 
			408.861,-274.157 416.379,-274.157 416.379,-288.708 440.58,-288.708 440.58,-274.157 448.098,-274.157 448.098,-310.776 		"/>
		<polygon fill="#FFFFFF" points="312.158,-280.788 312.158,-310.776 304.641,-310.776 304.641,-281.677 304.641,-274.157 
			312.158,-274.157 336.072,-274.157 336.072,-280.788 		"/>
		<polygon fill="#FFFFFF" points="298.91,-303.256 298.91,-310.776 269.014,-310.776 261.496,-310.776 261.496,-303.256 
			261.496,-274.157 269.014,-274.157 269.014,-289.649 297.006,-289.649 297.006,-296.227 269.014,-296.227 269.014,-303.256 		"/>
		<path fill="#FFFFFF" d="M401.732-298.513v-0.983c-0.004-6.231-5.053-11.276-11.283-11.279h-18.09
			c-6.232,0.003-11.277,5.048-11.281,11.279v14.06c0.004,6.23,5.049,11.275,11.281,11.279h18.09
			c6.23-0.004,11.279-5.049,11.283-11.279v-3.271v-2.104v-4.388h-21.207v6.492h13.752v3.271c-0.004,2.107-1.715,3.822-3.828,3.826
			h-18.09c-2.111-0.004-3.824-1.719-3.828-3.826v-14.06c0.004-2.11,1.717-3.822,3.828-3.826h18.09
			c2.113,0.004,3.824,1.716,3.828,3.826v0.983H401.732z"/>
		<path fill="#FFFFFF" d="M110.726-299.497c-0.004-6.231-5.051-11.276-11.282-11.279h-9.045h-6.513h-6.359h-7.453v7.453v29.166
			h7.453v-11.83h21.109v0.023h0.808c2.112,0.006,3.825,1.719,3.828,3.826v7.98h7.454v-7.98c-0.002-2.916-1.117-5.562-2.934-7.564
			c1.816-2,2.932-4.647,2.934-7.562V-299.497z M98.636-293.417H77.526v-9.906h6.359h6.513h9.045
			c2.112,0.004,3.825,1.716,3.828,3.826v2.232c-0.003,2.09-1.688,3.787-3.777,3.818v0.032c-0.018,0-0.034-0.003-0.051-0.003H98.636z
			"/>
		<path fill="#FFFFFF" d="M195.61-296.268h-5.268h-3.777h-9.046c-2.108-0.003-3.767-1.396-3.767-3.818
			c0-1.861,1.856-3.232,3.767-3.236h18.091c2.109,0.004,3.818,1.711,3.826,3.818h7.453c-0.006-6.228-5.052-11.269-11.279-11.271
			h-18.091c-6.032,0.003-10.938,4.734-11.251,10.689c0.009,6.228,5.023,11.267,11.251,11.271h9.046h3.777h5.268
			c2.109,0.004,3.826,1.463,3.826,3.846c0,1.871-1.873,3.355-3.826,3.359h-18.091c-2.108-0.004-3.819-1.715-3.827-3.818h-7.453
			c0.008,6.227,5.053,11.268,11.28,11.271h18.091c6.072-0.004,11.031-4.801,11.279-10.812
			C206.883-291.199,201.837-296.265,195.61-296.268z"/>
		<path fill="#FFFFFF" d="M243.808-296.268h-5.27h-3.775h-9.046c-2.109-0.003-3.767-1.396-3.767-3.818
			c0-1.861,1.857-3.232,3.767-3.236h18.091c2.11,0.004,3.818,1.711,3.827,3.818h7.453c-0.004-6.228-5.05-11.269-11.28-11.271
			h-18.091c-6.032,0.003-10.938,4.734-11.25,10.689c0.008,6.228,5.022,11.267,11.25,11.271h9.046h3.775h5.27
			c2.11,0.004,3.827,1.463,3.827,3.846c0,1.871-1.876,3.355-3.827,3.359h-18.091c-2.109-0.004-3.819-1.715-3.826-3.818h-7.454
			c0.008,6.227,5.053,11.268,11.28,11.271h18.091c6.073-0.004,11.032-4.801,11.28-10.812
			C255.084-291.199,250.038-296.265,243.808-296.268z"/>
	</g>
</g>
<g>
	<path fill="#FFFFFF" d="M498.851,60.557h-37.289v7.01h14.52v27.496h8.25V67.567h14.52V60.557z M419.897,60.557v34.505h8.303V80.693
		h21.279v14.369h8.252V60.557h-8.252v13.226H428.2V60.557H419.897z M397.224,68.016c1.959,0,3.521,0.04,4.701,0.122
		c1.174,0.085,2.088,0.243,2.732,0.474c0.648,0.232,1.088,0.555,1.32,0.97c0.23,0.413,0.346,0.952,0.346,1.615h8.553
		c0-2.021-0.258-3.729-0.77-5.121c-0.518-1.392-1.436-2.504-2.76-3.33c-1.326-0.83-3.117-1.426-5.369-1.791
		c-2.256-0.365-5.139-0.546-8.654-0.546h-7.557c-3.246,0-5.908,0.239-7.979,0.72c-2.072,0.48-3.705,1.311-4.896,2.483
		c-1.195,1.18-2.018,2.762-2.463,4.752c-0.447,1.989-0.67,4.489-0.67,7.506v5.369c0,2.719,0.25,4.975,0.746,6.762
		c0.496,1.791,1.35,3.209,2.559,4.256c1.211,1.039,2.824,1.768,4.85,2.184c2.021,0.414,4.574,0.623,7.656,0.623h8.602
		c3.381,0,6.146-0.199,8.303-0.596c2.154-0.4,3.854-1.115,5.094-2.139c1.246-1.029,2.107-2.438,2.586-4.227
		c0.482-1.789,0.723-4.094,0.723-6.91v-6.913h-21.031v6.713h12.529v2.584c0,0.797-0.117,1.459-0.35,1.99
		c-0.232,0.529-0.688,0.945-1.367,1.242c-0.678,0.299-1.621,0.506-2.83,0.621c-1.213,0.115-2.781,0.174-4.703,0.174h-6.758
		c-1.793,0-3.234-0.105-4.328-0.324c-1.094-0.213-1.936-0.596-2.535-1.143c-0.596-0.545-0.994-1.309-1.191-2.287
		c-0.203-0.977-0.299-2.248-0.299-3.805v-3.627c0-1.859,0.123-3.339,0.371-4.449c0.248-1.112,0.695-1.958,1.344-2.538
		c0.646-0.579,1.535-0.961,2.658-1.144c1.127-0.181,2.566-0.271,4.326-0.271H397.224z M359.438,95.062h8.254V60.557h-8.254V95.062z
		 M323.094,60.557v34.505h29.536v-6.961h-21.232V60.557H323.094z M282.674,60.557v34.505h8.305V80.693h26.15v-6.911h-26.15V67.42
		h26.998v-6.863H282.674z M249.559,60.557c-2.221,0-4.115,0.174-5.69,0.523c-1.575,0.346-2.858,0.918-3.854,1.715
		c-0.995,0.794-1.724,1.832-2.188,3.104c-0.465,1.279-0.694,2.826-0.694,4.651c0,2.152,0.223,3.852,0.672,5.095
		c0.444,1.245,1.183,2.188,2.211,2.834c1.026,0.647,2.344,1.086,3.953,1.319c1.606,0.232,3.586,0.395,5.94,0.496l13.227,0.549
		c1.191,0.062,2.162,0.182,2.908,0.348c0.742,0.164,1.324,0.406,1.74,0.721c0.412,0.312,0.703,0.693,0.871,1.143
		c0.162,0.447,0.248,0.986,0.248,1.615c0,1.393-0.449,2.32-1.346,2.785c-0.893,0.465-2.254,0.693-4.076,0.693h-13.818
		c-1.164,0-2.125-0.264-2.889-0.793c-0.76-0.531-1.141-1.229-1.141-2.09h-8.454c0,1.658,0.191,3.1,0.573,4.328
		c0.381,1.227,1.026,2.244,1.938,3.055c0.912,0.814,2.114,1.418,3.605,1.818c1.491,0.396,3.332,0.596,5.521,0.596h17.104
		c2.152,0,3.977-0.199,5.469-0.596c1.49-0.4,2.693-1.029,3.605-1.891c0.91-0.863,1.562-1.949,1.963-3.256
		c0.396-1.311,0.596-2.895,0.596-4.75c0-2.287-0.248-4.092-0.746-5.418c-0.496-1.327-1.236-2.344-2.215-3.06
		c-0.975-0.71-2.201-1.19-3.678-1.439c-1.475-0.25-3.189-0.408-5.146-0.474l-15.262-0.596c-0.598-0.033-1.146-0.076-1.643-0.124
		c-0.496-0.052-0.918-0.164-1.268-0.35c-0.348-0.181-0.623-0.465-0.822-0.844c-0.197-0.384-0.297-0.92-0.297-1.615
		c0-1.326,0.383-2.197,1.146-2.612c0.762-0.415,1.723-0.618,2.883-0.618h13.871c0.861,0,1.568,0.047,2.111,0.146
		c0.549,0.1,0.979,0.264,1.295,0.496c0.312,0.232,0.527,0.53,0.645,0.896c0.117,0.366,0.176,0.812,0.176,1.345h8.898
		c0-3.316-1.045-5.771-3.131-7.359c-2.09-1.593-5.305-2.387-9.646-2.387H249.559z M204.964,60.557c-2.225,0-4.119,0.174-5.696,0.523
		c-1.572,0.346-2.858,0.918-3.852,1.715c-0.994,0.794-1.724,1.832-2.188,3.104c-0.465,1.279-0.696,2.826-0.696,4.651
		c0,2.152,0.223,3.852,0.672,5.095c0.449,1.245,1.185,2.188,2.213,2.834c1.026,0.647,2.347,1.086,3.951,1.319
		c1.608,0.232,3.589,0.395,5.942,0.496l13.228,0.549c1.19,0.062,2.161,0.182,2.905,0.348c0.749,0.164,1.327,0.406,1.742,0.721
		c0.412,0.312,0.703,0.693,0.87,1.143c0.167,0.447,0.246,0.986,0.246,1.615c0,1.393-0.444,2.32-1.342,2.785
		c-0.894,0.465-2.252,0.693-4.077,0.693h-13.818c-1.164,0-2.125-0.264-2.888-0.793c-0.758-0.531-1.142-1.229-1.142-2.09h-8.451
		c0,1.658,0.189,3.1,0.568,4.328c0.384,1.227,1.028,2.244,1.942,3.055c0.909,0.814,2.109,1.418,3.603,1.818
		c1.494,0.396,3.333,0.596,5.519,0.596h17.104c2.154,0,3.978-0.199,5.471-0.596c1.489-0.4,2.692-1.029,3.605-1.891
		c0.912-0.863,1.565-1.949,1.963-3.256c0.397-1.311,0.596-2.895,0.596-4.75c0-2.287-0.248-4.092-0.744-5.418
		c-0.499-1.327-1.236-2.344-2.211-3.06c-0.981-0.71-2.207-1.19-3.683-1.439c-1.473-0.25-3.189-0.408-5.144-0.474l-15.267-0.596
		c-0.596-0.033-1.145-0.076-1.639-0.124c-0.498-0.052-0.923-0.164-1.268-0.35c-0.35-0.181-0.62-0.465-0.823-0.844
		c-0.199-0.384-0.298-0.92-0.298-1.615c0-1.326,0.381-2.197,1.144-2.612s1.724-0.618,2.884-0.618h13.872
		c0.862,0,1.566,0.047,2.112,0.146c0.548,0.1,0.979,0.264,1.295,0.496c0.313,0.232,0.53,0.53,0.645,0.896
		c0.118,0.366,0.174,0.812,0.174,1.345h8.9c0-3.316-1.042-5.771-3.131-7.359c-2.09-1.593-5.305-2.387-9.646-2.387H204.964z
		 M170.755,95.062c3.578,0,6.505-0.176,8.776-0.523c2.268-0.348,4.05-1.043,5.345-2.086c1.29-1.047,2.177-2.537,2.657-4.479
		c0.48-1.938,0.723-4.498,0.723-7.68V76.12c0-3.118-0.242-5.694-0.723-7.733c-0.48-2.037-1.357-3.646-2.633-4.819
		c-1.279-1.18-3.043-1.999-5.295-2.464c-2.256-0.462-5.152-0.694-8.699-0.694h-7.31c-3.385,0-6.15,0.221-8.303,0.672
		c-2.156,0.444-3.84,1.259-5.047,2.433c-1.211,1.18-2.042,2.793-2.488,4.851c-0.446,2.053-0.67,4.69-0.67,7.905v4.174
		c0,2.986,0.232,5.42,0.697,7.309c0.462,1.891,1.299,3.379,2.509,4.477c1.211,1.092,2.879,1.838,4.999,2.238
		c2.121,0.396,4.837,0.596,8.153,0.596H170.755z M170.458,68.214c2.087,0,3.754,0.09,4.997,0.275
		c1.241,0.181,2.193,0.56,2.856,1.142s1.104,1.398,1.317,2.461c0.217,1.061,0.325,2.453,0.325,4.177v3.579
		c0,1.654-0.108,2.982-0.325,3.975c-0.214,0.996-0.654,1.77-1.317,2.314c-0.663,0.547-1.606,0.902-2.831,1.07
		c-1.229,0.166-2.85,0.248-4.876,0.248h-6.562c-1.889,0-3.396-0.1-4.523-0.299c-1.128-0.197-1.99-0.572-2.586-1.119
		c-0.596-0.545-0.992-1.301-1.19-2.262c-0.201-0.961-0.301-2.221-0.301-3.779v-3.579c0-1.724,0.1-3.118,0.301-4.178
		c0.198-1.061,0.602-1.887,1.218-2.486c0.611-0.596,1.507-1.002,2.685-1.217c1.174-0.219,2.741-0.322,4.697-0.322H170.458z
		 M133.616,73.085c0,1.293-0.291,2.197-0.871,2.709c-0.579,0.515-1.6,0.772-3.057,0.772h-17.851V68.81h17.652
		c1.557,0,2.635,0.257,3.23,0.771c0.598,0.512,0.896,1.448,0.896,2.809V73.085z M142.218,87.9c0-2.053-0.275-3.568-0.821-4.547
		c-0.548-0.98-1.3-1.652-2.261-2.016c1.092-0.697,1.823-1.605,2.185-2.732c0.365-1.128,0.548-2.671,0.548-4.625v-2.387
		c0-1.987-0.232-3.687-0.697-5.095c-0.463-1.41-1.209-2.554-2.233-3.432c-1.029-0.88-2.34-1.518-3.93-1.915
		c-1.591-0.397-3.497-0.596-5.72-0.596h-25.604v34.505h8.303V84.77h16.31c1.922,0,3.341,0.396,4.25,1.193
		c0.914,0.795,1.367,2.037,1.367,3.73v5.369h8.305V87.9z M73.805,95.111h7.555c3.68,0,6.649-0.199,8.9-0.596
		c2.254-0.396,3.987-1.061,5.198-1.99c1.207-0.93,2.004-2.16,2.383-3.703c0.383-1.543,0.573-3.457,0.573-5.742h-8.551
		c0,0.961-0.108,1.738-0.325,2.334c-0.214,0.596-0.636,1.066-1.268,1.395c-0.628,0.332-1.517,0.547-2.658,0.646
		c-1.146,0.098-2.628,0.148-4.451,0.148H74.4c-1.791,0-3.23-0.084-4.324-0.248c-1.095-0.168-1.94-0.521-2.538-1.07
		c-0.596-0.545-0.993-1.316-1.191-2.311c-0.201-0.994-0.298-2.336-0.298-4.029v-3.776c0-1.823,0.097-3.267,0.298-4.327
		c0.198-1.061,0.604-1.854,1.218-2.387c0.614-0.528,1.489-0.866,2.636-1.018c1.144-0.151,2.644-0.224,4.498-0.224h6.365
		c1.956,0,3.513,0.081,4.672,0.248c1.162,0.165,2.039,0.424,2.638,0.77c0.598,0.35,0.985,0.778,1.166,1.293
		c0.183,0.514,0.275,1.103,0.275,1.767h8.553c0-2.421-0.25-4.393-0.747-5.918c-0.498-1.525-1.376-2.719-2.635-3.578
		c-1.259-0.862-2.982-1.451-5.171-1.767c-2.188-0.313-4.973-0.472-8.353-0.472h-7.359c-3.217,0-5.874,0.189-7.979,0.571
		c-2.104,0.381-3.778,1.125-5.021,2.237c-1.243,1.108-2.123,2.692-2.633,4.749c-0.517,2.054-0.772,4.772-0.772,8.154v4.372
		c0,2.852,0.249,5.215,0.745,7.09c0.496,1.871,1.352,3.354,2.559,4.447c1.214,1.096,2.852,1.857,4.925,2.289
		C67.993,94.895,70.624,95.111,73.805,95.111"/>
	<path fill="#5DA2D5" d="M495.062,116.895c1.916,0,3.393-1.164,3.393-3.178v-0.037c0-1.363-0.748-2.234-2.367-3.199
		c-1.125-0.672-1.637-1.006-1.637-1.521v-0.035c0-0.416,0.316-0.771,0.928-0.771c0.73,0,1.4,0.414,1.873,0.83l1.127-1.955
		c-0.971-0.73-2.074-1.064-3-1.064c-1.955,0-3.357,1.221-3.357,3.115v0.039c0,1.48,0.848,2.291,2.369,3.199
		c1.107,0.65,1.637,0.965,1.637,1.539v0.018c0,0.418-0.275,0.83-0.965,0.83c-0.75,0-1.498-0.455-2.232-1.084l-1.182,1.955
		C492.792,116.559,494.075,116.895,495.062,116.895 M488.528,116.914c1.145,0,2.072-0.473,2.764-1.223l-1.164-1.953
		c-0.375,0.434-0.729,0.789-1.344,0.789c-1.123,0-1.678-1.146-1.678-3.039v-0.137c0-1.896,0.654-3.021,1.678-3.021
		c0.615,0,1.008,0.375,1.322,0.729l1.186-2.129c-0.828-0.674-1.6-0.988-2.584-0.988c-2.447,0-4.164,2.012-4.164,5.27v0.451
		C484.544,114.92,486.122,116.914,488.528,116.914 M480.417,116.697h2.564v-10.578h-2.564V116.697z M480.378,105.055h2.645v-2.449
		h-2.645V105.055z M477.202,116.855c0.668,0,1.281-0.199,1.736-0.455v-2.053c-0.277,0.139-0.596,0.219-0.889,0.219
		c-0.514,0-0.771-0.238-0.771-0.793v-5.523h1.68v-2.131h-1.68v-2.703h-2.564v2.703h-0.848v2.131h0.848v6.217
		C474.714,116.359,475.839,116.855,477.202,116.855 M469.878,116.895c1.914,0,3.396-1.164,3.396-3.178v-0.037
		c0-1.363-0.752-2.234-2.367-3.199c-1.127-0.672-1.637-1.006-1.637-1.521v-0.035c0-0.416,0.314-0.771,0.924-0.771
		c0.73,0,1.404,0.414,1.877,0.83l1.123-1.955c-0.967-0.73-2.07-1.064-3-1.064c-1.953,0-3.354,1.221-3.354,3.115v0.039
		c0,1.48,0.848,2.291,2.365,3.199c1.107,0.65,1.639,0.965,1.639,1.539v0.018c0,0.418-0.273,0.83-0.967,0.83
		c-0.748,0-1.5-0.455-2.229-1.084l-1.184,1.955C467.608,116.559,468.896,116.895,469.878,116.895 M462.853,116.697h2.564v-10.578
		h-2.564V116.697z M462.813,105.055h2.646v-2.449h-2.646V105.055z M456.974,113.656c-0.871,0-1.461-0.947-1.461-2.703
		c0-1.719,0.59-2.703,1.461-2.703c0.867,0,1.498,0.984,1.498,2.703C458.472,112.691,457.841,113.656,456.974,113.656
		 M456.56,119.518c1.5,0,2.643-0.334,3.393-1.104c0.711-0.711,1.064-1.717,1.064-3.158v-9.137h-2.564v1.322
		c-0.512-0.729-1.186-1.521-2.426-1.521c-1.66,0-3.08,1.422-3.08,4.996v0.078c0,3.533,1.402,4.99,3.08,4.99
		c1.24,0,1.914-0.789,2.426-1.598v0.869c0,1.459-0.75,2.092-2.15,2.092c-0.771,0-1.797-0.256-2.369-0.57l-0.67,2.09
		C454.327,119.301,455.313,119.518,456.56,119.518 M447.599,114.664c-0.986,0-1.578-1.242-1.578-3.119v-0.234
		c0-1.916,0.553-3.119,1.578-3.119c1.006,0,1.578,1.225,1.578,3.119v0.234C449.177,113.439,448.624,114.664,447.599,114.664
		 M447.599,116.914c2.389,0,4.125-2.012,4.125-5.287v-0.416c0-3.275-1.736-5.27-4.125-5.27c-2.369,0-4.125,2.012-4.125,5.287v0.416
		C443.474,114.92,445.21,116.914,447.599,116.914 M435.897,116.697h6.787v-2.467h-4.145v-11.35h-2.643V116.697z M426.265,114.545
		c-0.889,0-1.457-1.105-1.457-2.959v-0.357c0-1.834,0.568-2.959,1.457-2.959s1.5,1.125,1.5,2.959v0.357
		C427.765,113.439,427.153,114.545,426.265,114.545 M425.376,116.895c1.225,0,1.895-0.828,2.369-1.6v1.402h2.566v-14.092h-2.566
		v4.836c-0.492-0.711-1.145-1.521-2.369-1.521c-1.695,0-3.137,1.482-3.137,5.17v0.635
		C422.239,115.434,423.698,116.895,425.376,116.895 M413.341,116.697h2.562v-6.928c0-1.004,0.475-1.539,1.188-1.539
		c0.709,0,1.143,0.535,1.143,1.539v6.928h2.564V109.1c0-1.916-0.928-3.18-2.586-3.18c-1.145,0-1.793,0.711-2.309,1.541v-1.342
		h-2.562V116.697z M407.792,114.881c-0.592-0.037-1.025-0.453-1.025-1.4v-0.041c0-0.986,0.475-1.498,1.225-1.498
		c0.393,0,0.848,0.139,1.145,0.275v1.283C409.136,114.328,408.522,114.92,407.792,114.881 M406.866,116.877
		c1.006,0,1.717-0.457,2.248-1.303v1.123h2.525v-6.709c0-1.305-0.334-2.33-1.006-3c-0.631-0.633-1.598-0.986-2.82-0.986
		c-1.186,0-2.17,0.354-3.041,0.828l0.771,2.111c0.316-0.217,1.064-0.631,1.893-0.631c1.01,0,1.699,0.549,1.699,1.754v0.477
		c-0.572-0.26-1.125-0.418-1.816-0.418c-1.795,0-3.02,1.029-3.02,3.377v0.217C404.3,115.709,405.425,116.877,406.866,116.877
		 M396.7,116.697h2.564v-14.092H396.7V116.697z M392.222,116.697h2.566v-10.578h-2.566V116.697z M392.185,105.055h2.643v-2.449
		h-2.643V105.055z M386.616,114.881c-0.592-0.037-1.025-0.453-1.025-1.4v-0.041c0-0.986,0.475-1.498,1.223-1.498
		c0.396,0,0.85,0.139,1.146,0.275v1.283C387.96,114.328,387.347,114.92,386.616,114.881 M385.688,116.877
		c1.008,0,1.717-0.457,2.25-1.303v1.123h2.525v-6.709c0-1.305-0.336-2.33-1.006-3c-0.631-0.633-1.598-0.986-2.822-0.986
		c-1.184,0-2.168,0.354-3.039,0.828l0.771,2.111c0.316-0.217,1.064-0.631,1.893-0.631c1.01,0,1.699,0.549,1.699,1.754v0.477
		c-0.572-0.26-1.125-0.418-1.816-0.418c-1.797,0-3.02,1.029-3.02,3.377v0.217C383.124,115.709,384.249,116.877,385.688,116.877
		 M371.382,116.697h2.545v-8.566l2.545,5.449h0.041l2.545-5.486v8.604h2.586v-13.816h-2.723l-2.408,5.35l-2.428-5.35h-2.703V116.697
		z M362.521,119.896l-0.217-1.068c1.422-0.258,1.855-1.164,1.756-2.131h-1.223v-2.9h2.9v2.406
		C365.737,118.494,364.612,119.717,362.521,119.896 M357.747,116.697h2.562v-5.035c0-1.854,0.789-2.762,2.211-2.762h0.08v-2.92
		c-1.203-0.078-1.875,0.65-2.291,1.738v-1.6h-2.562V116.697z M351.214,110.639c0.076-1.656,0.613-2.508,1.381-2.508
		c0.807,0,1.262,0.91,1.32,2.508H351.214z M352.968,116.914c1.205,0,2.211-0.494,3.158-1.363l-1.123-1.895
		c-0.496,0.516-1.088,0.988-1.836,0.988c-1.006,0-1.756-0.73-1.934-2.17h5.109c0.023-0.574,0.023-0.986,0.023-1.066
		c0-3.314-1.326-5.467-3.771-5.467c-2.211,0-3.908,2.053-3.908,5.328v0.336C348.687,114.961,350.581,116.914,352.968,116.914
		 M344.601,116.697h2.568v-10.578h-2.568V116.697z M344.562,105.055h2.645v-2.449h-2.645V105.055z M338.444,116.697h2.566v-5.035
		c0-1.854,0.787-2.762,2.209-2.762h0.078v-2.92c-1.203-0.078-1.873,0.65-2.287,1.738v-1.6h-2.566V116.697z M331.815,116.895
		c1.123,0,1.773-0.711,2.287-1.539v1.342h2.566v-10.578h-2.566v6.926c0,1.008-0.475,1.539-1.184,1.539
		c-0.711,0-1.127-0.531-1.127-1.539v-6.926h-2.562v7.598C329.229,115.631,330.138,116.895,331.815,116.895 M323.682,114.664
		c-0.986,0-1.576-1.242-1.576-3.119v-0.234c0-1.916,0.551-3.119,1.576-3.119c1.01,0,1.578,1.225,1.578,3.119v0.234
		C325.26,113.439,324.709,114.664,323.682,114.664 M323.682,116.914c2.391,0,4.126-2.012,4.126-5.287v-0.416
		c0-3.275-1.735-5.27-4.126-5.27c-2.365,0-4.123,2.012-4.123,5.287v0.416C319.559,114.92,321.295,116.914,323.682,116.914
		 M315.514,116.855c1.32,0,2.445-0.514,3.471-1.5l-1.4-2.055c-0.631,0.635-1.182,1.027-1.975,1.027c-1.242,0-2.426-1.34-2.426-4.498
		v-0.1c0-2.959,1.105-4.48,2.469-4.48c0.709,0,1.301,0.416,1.814,0.93l1.498-2.111c-0.826-0.812-1.855-1.342-3.295-1.342
		c-2.982,0-5.189,2.406-5.189,6.904v0.316C310.48,114.445,312.434,116.855,315.514,116.855 M302.428,116.895
		c1.916,0,3.393-1.164,3.393-3.178v-0.037c0-1.363-0.748-2.234-2.367-3.199c-1.125-0.672-1.637-1.006-1.637-1.521v-0.035
		c0-0.416,0.316-0.771,0.928-0.771c0.73,0,1.4,0.414,1.875,0.83l1.125-1.955c-0.965-0.73-2.074-1.064-3-1.064
		c-1.955,0-3.354,1.221-3.354,3.115v0.039c0,1.48,0.848,2.291,2.365,3.199c1.105,0.65,1.637,0.965,1.637,1.539v0.018
		c0,0.418-0.275,0.83-0.965,0.83c-0.75,0-1.498-0.455-2.229-1.084l-1.188,1.955C300.158,116.559,301.441,116.895,302.428,116.895
		 M295.285,116.895c1.912,0,3.393-1.164,3.393-3.178v-0.037c0-1.363-0.748-2.234-2.369-3.199c-1.123-0.672-1.637-1.006-1.637-1.521
		v-0.035c0-0.416,0.314-0.771,0.926-0.771c0.732,0,1.402,0.414,1.875,0.83l1.129-1.955c-0.971-0.73-2.074-1.064-3.004-1.064
		c-1.951,0-3.354,1.221-3.354,3.115v0.039c0,1.48,0.85,2.291,2.369,3.199c1.105,0.65,1.637,0.965,1.637,1.539v0.018
		c0,0.418-0.275,0.83-0.965,0.83c-0.752,0-1.504-0.455-2.229-1.084l-1.188,1.955C293.016,116.559,294.297,116.895,295.285,116.895
		 M286.145,110.639c0.082-1.656,0.611-2.508,1.385-2.508c0.807,0,1.262,0.91,1.32,2.508H286.145z M287.902,116.914
		c1.205,0,2.211-0.494,3.158-1.363l-1.123-1.895c-0.496,0.516-1.088,0.988-1.836,0.988c-1.008,0-1.758-0.73-1.936-2.17h5.111
		c0.02-0.574,0.02-0.986,0.02-1.066c0-3.314-1.32-5.467-3.768-5.467c-2.213,0-3.908,2.053-3.908,5.328v0.336
		C283.621,114.961,285.516,116.914,287.902,116.914 M278.154,116.697h2.564v-5.035c0-1.854,0.791-2.762,2.211-2.762h0.078v-2.92
		c-1.203-0.078-1.873,0.65-2.289,1.738v-1.6h-2.564V116.697z M272.607,114.545c-0.887,0-1.498-1.123-1.498-2.959v-0.357
		c0-1.854,0.611-2.959,1.498-2.959c0.889,0,1.461,1.105,1.461,2.959v0.357C274.068,113.422,273.496,114.545,272.607,114.545
		 M268.564,119.48h2.564v-4.105c0.475,0.709,1.145,1.52,2.367,1.52c1.695,0,3.137-1.482,3.137-5.17v-0.635
		c0-3.709-1.459-5.17-3.137-5.17c-1.223,0-1.893,0.828-2.367,1.6v-1.4h-2.564V119.48z M262.088,106.119h-2.682l2.467,5.17
		l-2.545,5.408h2.664l1.359-3.334l1.344,3.334h2.723l-2.566-5.408l2.467-5.17h-2.623l-1.303,3.139L262.088,106.119z
		 M251.137,116.697h7.262v-2.449h-4.639v-3.275h4.029v-2.447h-4.029v-3.195h4.561v-2.449h-7.184V116.697z M242.908,116.697h2.567
		v-14.092h-2.567V116.697z M237.303,114.881c-0.591-0.037-1.026-0.453-1.026-1.4v-0.041c0-0.986,0.474-1.498,1.221-1.498
		c0.396,0,0.853,0.139,1.146,0.275v1.283C238.643,114.328,238.032,114.92,237.303,114.881 M236.374,116.877
		c1.007,0,1.715-0.457,2.252-1.303v1.123h2.526v-6.709c0-1.305-0.338-2.33-1.008-3c-0.63-0.633-1.6-0.986-2.822-0.986
		c-1.183,0-2.171,0.354-3.039,0.828l0.769,2.111c0.316-0.217,1.065-0.631,1.896-0.631c1.006,0,1.696,0.549,1.696,1.754v0.477
		c-0.572-0.26-1.123-0.418-1.813-0.418c-1.798,0-3.019,1.029-3.019,3.377v0.217C233.811,115.709,234.934,116.877,236.374,116.877
		 M228.716,114.545c-0.887,0-1.498-1.123-1.498-2.959v-0.357c0-1.854,0.611-2.959,1.498-2.959c0.89,0,1.462,1.105,1.462,2.959v0.357
		C230.178,113.422,229.606,114.545,228.716,114.545 M229.606,116.895c1.696,0,3.138-1.482,3.138-5.17v-0.635
		c0-3.709-1.462-5.17-3.138-5.17c-1.224,0-1.896,0.828-2.369,1.6v-4.914h-2.563v14.092h2.563v-1.322
		C227.71,116.084,228.382,116.895,229.606,116.895 M219.067,114.664c-0.985,0-1.581-1.242-1.581-3.119v-0.234
		c0-1.916,0.555-3.119,1.581-3.119c1.005,0,1.577,1.225,1.577,3.119v0.234C220.644,113.439,220.094,114.664,219.067,114.664
		 M219.067,116.914c2.388,0,4.125-2.012,4.125-5.287v-0.416c0-3.275-1.737-5.27-4.125-5.27c-2.366,0-4.126,2.012-4.126,5.287v0.416
		C214.941,114.92,216.678,116.914,219.067,116.914 M210.817,116.697h2.565v-14.092h-2.565V116.697z M205.253,116.855
		c1.521,0,2.703-0.514,3.77-1.186v-6.848h-4.343v2.33h1.875v3c-0.237,0.156-0.673,0.275-1.126,0.275
		c-1.559,0-2.919-1.322-2.919-4.521v-0.275c0-2.76,1.204-4.398,2.898-4.398c1.029,0,1.658,0.533,2.033,0.965l1.462-2.17
		c-1.065-0.889-2.211-1.301-3.513-1.301c-3.258,0-5.586,2.646-5.586,6.904v0.316C199.805,114.545,202.194,116.855,205.253,116.855"
		/>
	<path fill="#56A1DC" d="M68.051,0.916C26.542,5.017,2.242,34.26,1.19,67.603c2.505-9.548,6.882-19.106,13.305-28.262
		C26.129,22.75,48.48,6.718,68.051,0.916 M145.991,127.6c-36.437,29.328-90.174,20.502-117.147-18.645
		c-5.146-7.471-8.747-15.225-10.931-23.012c-1.219,21.717,8.577,42.385,26.717,55.869C76.841,160.002,118.876,156.201,145.991,127.6
		"/>
	<polygon fill="#56A1DC" points="167.712,115.057 139.231,145.828 145.991,127.6 126.825,124.336 	"/>
	<g>
		<path fill="#FFFFFF" d="M145.991,29.403C109.554,0.072,55.817,8.897,28.843,48.045c-29.16,42.324-8.855,93.792,39.208,108.039
			C6.564,150.012-17.174,88.771,16.502,40.749C47.016-2.762,109.798-8.782,145.991,29.403"/>
	</g>
	<polygon fill="#FFFFFF" points="167.712,41.945 139.231,11.173 145.991,29.405 126.825,32.663 	"/>
</g>
</svg>
